<svg xmlns="http://www.w3.org/2000/svg" width="640" height="326" viewBox="0 0 640 326" font-family="ui-sans-serif, system-ui, -apple-system, Segoe UI, Roboto, sans-serif">
  <rect x="1" y="1" width="638" height="324" rx="12" fill="#0d1117" stroke="#30363d"/>
  <text x="24" y="40" fill="#e6edf3" font-size="18" font-weight="700">OWASP Benchmark v1.2 — Benchmark Score</text>
  <text x="24" y="60" fill="#8b949e" font-size="12">Higher is better (TPR &#8722; FPR) &#183; 2,740 labelled Java tests</text>

  <text x="24" y="98" fill="#3fb950" font-size="13" font-weight="700">&#9733; Shield</text>
  <rect x="150" y="86" width="360" height="16" rx="3" fill="#3fb950"/>
  <text x="520" y="98" fill="#3fb950" font-size="13" font-weight="700">+0.450</text>

  <text x="24" y="138" fill="#c9d1d9" font-size="13">FindSecBugs</text>
  <rect x="150" y="126" width="350" height="16" rx="3" fill="#3d4a5c"/>
  <text x="510" y="138" fill="#8b949e" font-size="13">+0.438</text>

  <text x="24" y="178" fill="#c9d1d9" font-size="13">SonarQube</text>
  <rect x="150" y="166" width="258" height="16" rx="3" fill="#3d4a5c"/>
  <text x="418" y="178" fill="#8b949e" font-size="13">+0.323</text>

  <text x="24" y="218" fill="#c9d1d9" font-size="13">Semgrep</text>
  <rect x="150" y="206" width="239" height="16" rx="3" fill="#3d4a5c"/>
  <text x="399" y="218" fill="#8b949e" font-size="13">+0.299</text>

  <text x="24" y="258" fill="#c9d1d9" font-size="13">OWASP ZAP</text>
  <rect x="150" y="246" width="138" height="16" rx="3" fill="#3d4a5c"/>
  <text x="298" y="258" fill="#8b949e" font-size="13">+0.172</text>

  <line x1="24" y1="282" x2="616" y2="282" stroke="#21262d"/>
  <text x="24" y="306" fill="#8b949e" font-size="12"><tspan fill="#e6edf3" font-weight="700">Shield #1</tspan> at <tspan fill="#3fb950" font-weight="700">92.8% precision</tspan> &#183; competitor rows from OWASP&#8217;s published scorecards &#183; reproducible</text>
</svg>
